<svg width="157" height="46" viewBox="0 0 157 46" fill="none" xmlns="http://www.w3.org/2000/svg">
<path d="M28.7122 30.0746L40.3276 4.97038C40.8494 3.84248 40.0257 2.55371 38.7829 2.55371H12.3474C11.0597 2.55371 9.77577 2.86213 8.69301 3.55924C-2.25751 10.6094 -3.02996 22.4503 7.32986 29.8944C8.4574 30.7046 9.84153 31.0619 11.23 31.0619H27.1675C27.8308 31.0619 28.4337 30.6766 28.7122 30.0746Z" fill="#554CBD"/>
<g style="mix-blend-mode:multiply">
<path d="M5.38104 42.2842L16.9878 17.5731C17.2683 16.976 17.8686 16.5947 18.5283 16.5947H35.9084C37.1962 16.5947 38.4801 16.9031 39.5629 17.6003C50.499 24.6412 51.2838 36.4603 40.9668 43.9061C39.8152 44.7372 38.3957 45.0938 36.9757 45.0764L6.9008 44.7097C5.66285 44.6946 4.85471 43.4048 5.38104 42.2842Z" fill="#50AFF8"/>
</g>
<path d="M67.2092 41.5944C66.8059 41.5944 66.408 41.5241 66.0154 41.3837C65.6229 41.2432 65.2988 41.056 65.0431 40.8219L65.405 40.2115C65.6139 40.4204 65.8858 40.5914 66.2207 40.7247C66.5556 40.8579 66.8815 40.9245 67.1984 40.9245C67.5621 40.9245 67.8556 40.8417 68.0789 40.6761C68.3022 40.5104 68.4138 40.3015 68.4138 40.0495C68.4138 39.8622 68.3544 39.7073 68.2356 39.5849C68.1167 39.4589 67.9619 39.3634 67.771 39.2986C67.5837 39.2302 67.3749 39.1708 67.1444 39.1203C66.9175 39.0699 66.6889 39.0123 66.4584 38.9475C66.2315 38.8791 66.0226 38.7962 65.8318 38.699C65.6445 38.5982 65.4915 38.4523 65.3726 38.2615C65.2538 38.0706 65.1944 37.8401 65.1944 37.57C65.1944 37.1019 65.3762 36.7237 65.7399 36.4356C66.1037 36.144 66.579 35.9981 67.166 35.9981C67.5405 35.9981 67.8971 36.0593 68.2356 36.1818C68.5777 36.3006 68.8514 36.4717 69.0566 36.6949L68.6785 37.3053C68.5021 37.1145 68.2626 36.9614 67.9601 36.8462C67.6612 36.7309 67.3749 36.6733 67.1012 36.6733C66.7699 36.6733 66.5034 36.7508 66.3017 36.9056C66.1037 37.0569 66.0046 37.2603 66.0046 37.516C66.0046 37.6889 66.064 37.8329 66.1829 37.9482C66.3017 38.0598 66.4548 38.148 66.642 38.2128C66.8329 38.2741 67.0436 38.3317 67.274 38.3857C67.5045 38.4361 67.735 38.4973 67.9655 38.5694C68.196 38.6414 68.4048 38.7314 68.5921 38.8394C68.7829 38.9475 68.9378 39.1023 69.0566 39.304C69.1755 39.5057 69.2349 39.7469 69.2349 40.0278C69.2349 40.4852 69.0458 40.8615 68.6677 41.1568C68.2932 41.4485 67.807 41.5944 67.2092 41.5944ZM70.8608 33.7618C71.0157 33.7618 71.1525 33.8194 71.2714 33.9346C71.3902 34.0499 71.4496 34.1849 71.4496 34.3398C71.4496 34.4982 71.3902 34.6368 71.2714 34.7557C71.1525 34.8709 71.0157 34.9285 70.8608 34.9285C70.7024 34.9285 70.5673 34.8709 70.4557 34.7557C70.3441 34.6405 70.2882 34.5018 70.2882 34.3398C70.2882 34.1849 70.3441 34.0499 70.4557 33.9346C70.5673 33.8194 70.7024 33.7618 70.8608 33.7618ZM70.4503 36.1115H71.2606V41.4863H70.4503V36.1115ZM75.4956 35.9981C76.1654 35.9981 76.702 36.216 77.1053 36.6517C77.5087 37.0875 77.7103 37.6673 77.7103 38.3911V41.4863H76.9V38.4991C76.9 37.9806 76.756 37.5664 76.4679 37.2567C76.1798 36.9434 75.7999 36.7868 75.3281 36.7868C74.9716 36.7868 74.6367 36.8732 74.3234 37.0461C74.0137 37.2153 73.7778 37.4458 73.6158 37.7375V41.4863H72.8055V36.1115H73.6158V36.9488C73.7922 36.6571 74.0497 36.4266 74.3882 36.2574C74.7303 36.0845 75.0994 35.9981 75.4956 35.9981ZM84.1385 40.2115C83.926 40.6364 83.6055 40.9732 83.1769 41.2216C82.7484 41.4701 82.264 41.5944 81.7239 41.5944C80.9424 41.5944 80.2816 41.3261 79.7414 40.7895C79.2048 40.2493 78.9365 39.5849 78.9365 38.7962C78.9365 38.2777 79.059 37.8041 79.3038 37.3756C79.5487 36.947 79.8836 36.6103 80.3086 36.3654C80.7371 36.1205 81.2089 35.9981 81.7239 35.9981C82.2352 35.9981 82.6944 36.1169 83.1013 36.3546C83.5082 36.5887 83.8017 36.902 83.9818 37.2945L83.2958 37.6565C83.1805 37.3864 82.9789 37.1703 82.6908 37.0082C82.4063 36.8462 82.084 36.7652 81.7239 36.7652C81.1549 36.7652 80.6795 36.9596 80.2978 37.3486C79.9197 37.7375 79.7306 38.22 79.7306 38.7962C79.7306 39.3688 79.9215 39.8514 80.3032 40.2439C80.6885 40.6364 81.1621 40.8327 81.7239 40.8327C82.1056 40.8327 82.4477 40.7499 82.7502 40.5842C83.0563 40.415 83.2868 40.1809 83.4416 39.882L84.1385 40.2115ZM90.0156 38.5532C90.0156 38.6324 90.0084 38.744 89.994 38.8881H85.4997C85.5321 39.4823 85.7302 39.9612 86.0939 40.3249C86.4612 40.6851 86.924 40.8651 87.4822 40.8651C87.8711 40.8651 88.2204 40.7859 88.5301 40.6274C88.8434 40.469 89.0775 40.2529 89.2324 39.9792L89.8698 40.3898C89.6645 40.7607 89.3476 41.0542 88.919 41.2703C88.4905 41.4863 88.0043 41.5944 87.4606 41.5944C87.086 41.5944 86.7295 41.5223 86.391 41.3783C86.0561 41.2342 85.7644 41.038 85.5159 40.7895C85.271 40.541 85.0766 40.2421 84.9325 39.8928C84.7885 39.5399 84.7164 39.1636 84.7164 38.7638C84.7164 37.9896 84.9811 37.3359 85.5105 36.803C86.0399 36.2664 86.6863 35.9981 87.4498 35.9981C88.1736 35.9981 88.7822 36.2448 89.2756 36.7381C89.7689 37.2279 90.0156 37.8329 90.0156 38.5532ZM85.5483 38.2561H89.1837C89.1513 37.7951 88.9677 37.417 88.6328 37.1217C88.3014 36.8228 87.8963 36.6733 87.4173 36.6733C86.9456 36.6733 86.5387 36.8192 86.1965 37.1109C85.858 37.399 85.642 37.7807 85.5483 38.2561ZM93.6186 41.4863V40.8651L96.595 37.8887C96.9947 37.4818 97.29 37.1217 97.4809 36.8084C97.6718 36.4915 97.7672 36.1854 97.7672 35.8901C97.7672 35.4687 97.6195 35.1212 97.3242 34.8475C97.0325 34.5738 96.6598 34.437 96.2061 34.437C95.6983 34.437 95.286 34.59 94.9691 34.8961C94.6522 35.2022 94.4829 35.6146 94.4613 36.1331L93.6402 36.0791C93.6546 35.3625 93.9067 34.7755 94.3965 34.3181C94.8862 33.8608 95.493 33.6321 96.2169 33.6321C96.9083 33.6321 97.4809 33.8428 97.9346 34.2641C98.392 34.6819 98.6207 35.2166 98.6207 35.8685C98.6207 36.6427 98.1453 37.4872 97.1946 38.4019L94.9258 40.6761H98.7179V41.4863H93.6186ZM102.402 41.5944C101.527 41.5944 100.841 41.2396 100.344 40.5302C99.8505 39.8208 99.6038 38.8485 99.6038 37.6132C99.6038 36.378 99.8505 35.4057 100.344 34.6963C100.841 33.9868 101.527 33.6321 102.402 33.6321C103.273 33.6321 103.956 33.9868 104.449 34.6963C104.943 35.4057 105.189 36.378 105.189 37.6132C105.189 38.8485 104.943 39.8208 104.449 40.5302C103.956 41.2396 103.273 41.5944 102.402 41.5944ZM102.402 40.7895C103.014 40.7895 103.489 40.514 103.828 39.963C104.17 39.412 104.341 38.6288 104.341 37.6132C104.341 36.5977 104.17 35.8144 103.828 35.2635C103.489 34.7125 103.014 34.437 102.402 34.437C101.786 34.437 101.309 34.7125 100.97 35.2635C100.636 35.8108 100.468 36.5941 100.468 37.6132C100.468 38.6324 100.636 39.4174 100.97 39.9684C101.309 40.5158 101.786 40.7895 102.402 40.7895ZM108.506 33.7402V41.4863H107.663V34.8907L105.881 36.4194V35.3931L107.896 33.7402H108.506ZM109.856 41.4863V40.8651L112.833 37.8887C113.233 37.4818 113.528 37.1217 113.719 36.8084C113.91 36.4915 114.005 36.1854 114.005 35.8901C114.005 35.4687 113.857 35.1212 113.562 34.8475C113.27 34.5738 112.898 34.437 112.444 34.437C111.936 34.437 111.524 34.59 111.207 34.8961C110.89 35.2022 110.721 35.6146 110.699 36.1331L109.878 36.0791C109.892 35.3625 110.145 34.7755 110.634 34.3181C111.124 33.8608 111.731 33.6321 112.455 33.6321C113.146 33.6321 113.719 33.8428 114.172 34.2641C114.63 34.6819 114.858 35.2166 114.858 35.8685C114.858 36.6427 114.383 37.4872 113.432 38.4019L111.164 40.6761H114.956V41.4863H109.856Z" fill="black" fill-opacity="0.57"/>
<path d="M69.7199 6.45821C71.0102 6.45821 72.3053 6.73606 73.605 7.29175C74.9048 7.83803 75.9032 8.52558 76.6001 9.35441L74.6364 11.9822C73.9582 11.2852 73.1529 10.7342 72.2205 10.3292C71.2975 9.92423 70.3792 9.72173 69.4656 9.72173C68.5332 9.72173 67.7703 9.93365 67.1769 10.3575C66.5929 10.7813 66.301 11.3323 66.301 12.0104C66.301 12.4719 66.4234 12.8769 66.6683 13.2254C66.9132 13.5645 67.2428 13.847 67.6572 14.0731C68.0811 14.2897 68.5614 14.4875 69.0983 14.6665C69.6351 14.8454 70.2002 15.0196 70.7936 15.1892C71.3964 15.3587 71.9945 15.5424 72.5878 15.7402C73.1906 15.938 73.7604 16.1875 74.2973 16.4889C74.8342 16.7903 75.3098 17.1388 75.7242 17.5344C76.148 17.93 76.4824 18.4386 76.7273 19.0602C76.9722 19.6724 77.0946 20.3694 77.0946 21.1511C77.0946 21.9611 76.9251 22.7381 76.586 23.4822C76.2563 24.2168 75.7854 24.8667 75.1732 25.4318C74.5704 25.9969 73.8075 26.449 72.8845 26.7881C71.9615 27.1177 70.9537 27.2826 69.8612 27.2826C68.3542 27.2826 66.8661 26.9576 65.3968 26.3077C63.9369 25.6579 62.7549 24.829 61.8507 23.8213L64.0264 21.3348C64.9117 22.1824 65.8159 22.8417 66.7389 23.3127C67.6714 23.7836 68.7121 24.019 69.8612 24.019C70.982 24.019 71.8862 23.76 72.5737 23.242C73.2707 22.7146 73.6192 22.027 73.6192 21.1794C73.6192 20.7367 73.4967 20.3505 73.2518 20.0209C73.007 19.6912 72.6773 19.4228 72.2629 19.2156C71.8485 19.0084 71.3728 18.82 70.836 18.6505C70.2991 18.481 69.734 18.3208 69.1407 18.1701C68.5473 18.01 67.9539 17.8358 67.3606 17.6474C66.7766 17.459 66.2162 17.2189 65.6794 16.9269C65.1425 16.6349 64.6669 16.2911 64.2524 15.8956C63.838 15.5 63.5084 14.9961 63.2635 14.3839C63.0186 13.7717 62.8962 13.07 62.8962 12.2789C62.8962 10.6212 63.5366 9.23668 64.8176 8.12529C66.0985 7.0139 67.7326 6.45821 69.7199 6.45821ZM81.2058 14.6806C82.6091 13.2678 84.3469 12.5614 86.4189 12.5614C88.491 12.5614 90.2334 13.2678 91.6462 14.6806C93.059 16.0934 93.7654 17.8452 93.7654 19.9361C93.7654 22.027 93.059 23.7742 91.6462 25.1775C90.2334 26.5809 88.491 27.2826 86.4189 27.2826C84.3469 27.2826 82.6091 26.5809 81.2058 25.1775C79.8024 23.7742 79.1007 22.027 79.1007 19.9361C79.1007 17.8452 79.8024 16.0934 81.2058 14.6806ZM89.3858 16.8845C88.5852 16.0651 87.5962 15.6554 86.4189 15.6554C85.2416 15.6554 84.2574 16.0651 83.4662 16.8845C82.6751 17.7039 82.2795 18.7211 82.2795 19.9361C82.2795 21.1417 82.6751 22.1542 83.4662 22.9736C84.2668 23.7836 85.251 24.1886 86.4189 24.1886C87.5962 24.1886 88.5852 23.7789 89.3858 22.9595C90.1863 22.14 90.5866 21.1323 90.5866 19.9361C90.5866 18.7211 90.1863 17.7039 89.3858 16.8845ZM109.405 23.4115C108.868 24.5889 108.016 25.5307 106.848 26.2371C105.68 26.9341 104.361 27.2826 102.892 27.2826C100.792 27.2826 99.0303 26.5809 97.6081 25.1775C96.1953 23.7742 95.489 22.027 95.489 19.9361C95.489 18.561 95.8092 17.3083 96.4496 16.1781C97.0901 15.0479 97.9754 14.1626 99.1057 13.5221C100.236 12.8816 101.489 12.5614 102.864 12.5614C104.229 12.5614 105.454 12.8722 106.537 13.4938C107.629 14.1155 108.439 14.9537 108.967 16.0086L106.24 17.5344C105.948 16.9599 105.501 16.5031 104.898 16.164C104.305 15.8249 103.627 15.6554 102.864 15.6554C101.658 15.6554 100.655 16.0651 99.8544 16.8845C99.0633 17.6945 98.6677 18.7117 98.6677 19.9361C98.6677 21.1417 99.068 22.1542 99.8686 22.9736C100.679 23.7836 101.686 24.1886 102.892 24.1886C103.721 24.1886 104.455 24.0049 105.096 23.6376C105.736 23.2703 106.217 22.7617 106.537 22.1118L109.405 23.4115ZM124.522 19.3004C124.522 19.8466 124.484 20.3129 124.409 20.699H113.643C113.822 21.8481 114.279 22.7475 115.014 23.3974C115.758 24.0473 116.699 24.3722 117.839 24.3722C118.64 24.3722 119.374 24.2121 120.043 23.8919C120.712 23.5622 121.211 23.1243 121.541 22.578L124.112 24.2168C123.584 25.1775 122.76 25.931 121.639 26.4773C120.528 27.0141 119.242 27.2826 117.783 27.2826C116.436 27.2826 115.202 26.9623 114.081 26.3219C112.96 25.672 112.07 24.7772 111.411 23.6376C110.761 22.4979 110.436 21.2359 110.436 19.8513C110.436 18.5045 110.756 17.2754 111.397 16.164C112.047 15.0432 112.927 14.1626 114.039 13.5221C115.16 12.8816 116.389 12.5614 117.726 12.5614C118.979 12.5614 120.123 12.8581 121.159 13.4515C122.205 14.0448 123.024 14.8595 123.617 15.8956C124.22 16.9222 124.522 18.0571 124.522 19.3004ZM113.756 18.2267H121.131C121.046 17.3413 120.669 16.6208 120.001 16.0651C119.332 15.5 118.513 15.2174 117.542 15.2174C116.591 15.2174 115.786 15.4859 115.127 16.0227C114.467 16.5502 114.01 17.2848 113.756 18.2267ZM130.413 6.74077V27H127.206V6.74077H130.413ZM133.987 6.89617C134.392 6.49118 134.877 6.28868 135.442 6.28868C136.007 6.28868 136.492 6.49118 136.897 6.89617C137.312 7.30117 137.519 7.78151 137.519 8.33721C137.519 8.91174 137.312 9.4015 136.897 9.8065C136.492 10.2115 136.007 10.414 135.442 10.414C134.877 10.414 134.392 10.2115 133.987 9.8065C133.582 9.4015 133.38 8.91174 133.38 8.33721C133.38 7.78151 133.582 7.30117 133.987 6.89617ZM133.818 12.8581H137.025V27H133.818V12.8581ZM147.974 12.5614C149.744 12.5614 151.152 13.1359 152.198 14.285C153.243 15.4341 153.766 16.9834 153.766 18.933V27H150.531V19.4416C150.531 18.3114 150.225 17.4167 149.612 16.7574C149.01 16.0981 148.204 15.7684 147.197 15.7684C146.471 15.7684 145.784 15.9474 145.134 16.3053C144.494 16.6632 143.994 17.1435 143.636 17.7463V27H140.429V12.8581H143.636V14.7653C144.07 14.0872 144.677 13.5504 145.459 13.1548C146.241 12.7592 147.079 12.5614 147.974 12.5614Z" fill="black"/>
</svg>
